# xmcd
#
# Track frame offsets: 
#        150
#        15888
#        31298
#        52224
#        65879
#        82430
#        99884
#        114098
#        129213
#        143648
#
# Disc length: 2176 seconds
#
# Revision: 0
# Processed by: cddbd v1.5.2PL0 Copyright (c) Steve Scherf et al.
# Submitted via: ExactAudioCopy v1.0b4
#
DISCID=7e087e0a
DTITLE=Jake La Botz - Sunnyside
DYEAR=2017
DGENRE=Blues
TTITLE0=How I Wish She Was Mine
TTITLE1=Hobo On A Passenger Train
TTITLE2=Sunnyside
TTITLE3=Feel No Pain
TTITLE4=Inflatable Duck
TTITLE5=The Hotel (Fix Me Now)
TTITLE6=For Nickels And Dimes
TTITLE7=Hard To Love What You Kill
TTITLE8=Damsel In Distress
TTITLE9=The Trees In Cali
EXTD=
EXTT0=
EXTT1=
EXTT2=
EXTT3=
EXTT4=
EXTT5=
EXTT6=
EXTT7=
EXTT8=
EXTT9=
PLAYORDER=
